<svg role="img" viewBox="0 0 128 128" xmlns="http://www.w3.org/2000/svg" id="Drizzle--Streamline-Simple-Icons" height="128" width="128">
  <desc>
    Drizzle Streamline Icon: https://streamlinehq.com
  </desc>
  <title>Drizzle</title>
  <path d="M28.54933333333333 63.056a5.525333333333333 5.525333333333333 0 0 0 -2.1066666666666665 -7.584 5.6693333333333324 5.6693333333333324 0 0 0 -7.664 2.128L0.736 89.07733333333334a5.52 5.52 0 0 0 2.1066666666666665 7.584 5.6693333333333324 5.6693333333333324 0 0 0 7.664 -2.1226666666666665l18.042666666666666 -31.482666666666663Zm59.81866666666666 0a5.525333333333333 5.525333333333333 0 0 0 -2.1013333333333333 -7.584 5.674666666666667 5.674666666666667 0 0 0 -7.6693333333333324 2.128l-18.037333333333333 31.477333333333334a5.525333333333333 5.525333333333333 0 0 0 2.1013333333333333 7.584c2.6986666666666665 1.5093333333333332 6.133333333333333 0.5546666666666666 7.6693333333333324 -2.1226666666666665l18.037333333333333 -31.482666666666663Zm38.896 -24.133333333333333a5.525333333333333 5.525333333333333 0 0 0 -2.1066666666666665 -7.584 5.664 5.664 0 0 0 -7.664 2.128l-18.042666666666666 31.477333333333334a5.525333333333333 5.525333333333333 0 0 0 2.1066666666666665 7.584 5.6693333333333324 5.6693333333333324 0 0 0 7.664 -2.128l18.042666666666666 -31.477333333333334Zm-59.834666666666664 0a5.52 5.52 0 0 0 -2.1013333333333333 -7.584 5.674666666666667 5.674666666666667 0 0 0 -7.6693333333333324 2.1226666666666665l-18.037333333333333 31.482666666666663a5.525333333333333 5.525333333333333 0 0 0 2.1013333333333333 7.584c2.6986666666666665 1.5039999999999998 6.133333333333333 0.5546666666666666 7.6693333333333324 -2.128l18.037333333333333 -31.477333333333334Z" fill="#ffffff" stroke-width="5.3333"></path>
</svg>