<svg role="img" viewBox="0 0 128 128" xmlns="http://www.w3.org/2000/svg" id="Prisma--Streamline-Simple-Icons" height="128" width="128">
  <desc>
    Prisma Streamline Icon: https://streamlinehq.com
  </desc>
  <title>Prisma</title>
  <path d="M116.30293333333333 97.51893333333334 72.2816 4.034666666666666c-1.1039999999999999 -2.3370666666666664 -3.408 -3.878933333333333 -6.0192 -4.021866666666666 -2.678933333333333 -0.15626666666666666 -5.0789333333333335 1.136 -6.433066666666666 3.334933333333333L12.085333333333333 80.67786666666666c-1.4789333333333332 2.4095999999999997 -1.4495999999999998 5.381866666666667 0.08426666666666667 7.762666666666666l23.33813333333333 36.15253333333333c1.3909333333333331 2.1578666666666666 3.8010666666666664 3.4069333333333334 6.305599999999999 3.4069333333333334 0.7104 0 1.424 -0.10026666666666667 2.1264 -0.3077333333333333l67.74346666666666 -20.036266666666666c2.0751999999999997 -0.6138666666666666 3.7717333333333336 -2.082133333333333 4.6597333333333335 -4.028266666666666s0.8709333333333333 -4.174933333333334 -0.039999999999999994 -6.1088zm-9.856533333333333 4.010133333333333L48.96746666666667 118.52906666666667c-1.7557333333333331 0.52 -3.4389333333333334 -0.9989333333333332 -3.0698666666666665 -2.770133333333333l20.533866666666665 -98.3392c0.38399999999999995 -1.8389333333333333 2.9258666666666664 -2.1311999999999998 3.7279999999999998 -0.42826666666666663l38.020266666666664 80.73599999999999c0.7167999999999999 1.5232 -0.10133333333333333 3.319466666666666 -1.7333333333333334 3.8015999999999996z" fill="#ffffff" stroke-width="5.3333"></path>
</svg>