<svg xmlns="http://www.w3.org/2000/svg" fill="none" viewBox="0 0 128 128" id="React-Query-Icon--Streamline-Svg-Logos" height="128" width="128">
  <desc>
    React Query Icon Streamline Icon: https://streamlinehq.com
  </desc>
  <path fill="#00435b" d="m78.67786666666666 77.62906666666666 -2.404 4.174666666666666c-0.7242666666666666 1.2574666666666667 -2.0649333333333333 2.0325333333333333 -3.5161333333333333 2.0325333333333333H54.340933333333325c-1.4512 0 -2.7918666666666665 -0.7750666666666667 -3.5161333333333333 -2.0325333333333333l-2.4042666666666666 -4.174666666666666h30.257333333333335Zm6.7303999999999995 -11.686399999999999 -4.239066666666666 7.360399999999999h-35.239999999999995l-4.2387999999999995 -7.360399999999999h43.717866666666666Zm-4.083333333333333 -11.427866666666667 4.090133333333333 7.102133333333333H41.6836l4.09 -7.102133333333333h35.55133333333333Zm-8.5672 -10.803199999999999c1.4512 0 2.7918666666666665 0.7750666666666667 3.5161333333333333 2.0325333333333333l2.559733333333333 4.4446666666666665H48.26493333333333l2.5598666666666663 -4.4446666666666665c0.7242666666666666 -1.2574666666666667 2.0649333333333333 -2.0325333333333333 3.5161333333333333 -2.0325333333333333h18.4168Z" stroke-width="1.3333"></path>
  <path fill="#002b3b" d="M27.5372 41.77506666666666c-2.0401333333333334 -9.892533333333333 -2.4778666666666664 -17.479999999999997 -1.1591999999999998 -22.989466666666665 0.7842666666666666 -3.2767999999999997 2.2181333333333333 -5.9499466666666665 4.398533333333333 -7.878573333333333 2.3018666666666663 -2.03612 5.212133333333333 -3.0352533333333334 8.482133333333334 -3.0352533333333334 5.394666666666667 0 11.0656 2.46 17.126133333333332 7.133293333333333 2.472 1.9062666666666666 5.037599999999999 4.203866666666666 7.702 6.8941333333333334 0.2121333333333333 -0.2730666666666667 0.45186666666666664 -0.5305333333333333 0.7189333333333333 -0.7685333333333333 7.532933333333333 -6.712933333333333 13.874933333333333 -10.88368 19.299333333333333 -12.491813333333333 3.2253333333333334 -0.9561866666666666 6.2536 -1.0472933333333332 9.011199999999999 -0.11926666666666666 2.9108 0.9795866666666666 5.230133333333333 3.00452 6.866533333333333 5.840813333333333 2.700533333333333 4.680933333333333 3.4126666666666665 10.831733333333332 2.4058666666666664 18.426266666666663 -0.4104 3.0955999999999997 -1.1119999999999999 6.4677333333333324 -2.103333333333333 10.121333333333332 0.374 0.0452 0.7489333333333332 0.12813333333333332 1.1201333333333332 0.25106666666666666 9.557599999999999 3.1672 16.325333333333333 6.5732 20.422666666666665 10.465733333333333 2.4378666666666664 2.3158666666666665 4.029733333333333 4.894133333333333 4.6052 7.748133333333333 0.6074666666666666 3.0124 0.0152 6.034 -1.6191999999999998 8.868133333333333 -2.6955999999999998 4.674133333333333 -7.651866666666667 8.360666666666667 -14.712799999999998 11.280533333333333 -2.8351999999999995 1.1723999999999999 -6.043066666666666 2.2342666666666666 -9.627199999999998 3.189333333333333 0.1636 0.3692 0.2904 0.7613333333333332 0.3753333333333333 1.1728 2.0401333333333334 9.892399999999999 2.4778666666666664 17.479866666666666 1.1591999999999998 22.989466666666665 -0.7842666666666666 3.2767999999999997 -2.2182666666666666 5.949866666666666 -4.398533333333333 7.878533333333333 -2.3018666666666663 2.036133333333333 -5.212133333333333 3.0352 -8.482266666666666 3.0352 -5.3945333333333325 0 -11.0656 -2.46 -17.126133333333332 -7.133333333333333 -2.4982666666666664 -1.9264000000000001 -5.092133333333333 -4.252666666666666 -7.787066666666666 -6.98 -0.2773333333333333 0.4337333333333333 -0.6177333333333332 0.8368 -1.0204 1.1957333333333333 -7.532933333333333 6.7128 -13.874933333333333 10.883599999999998 -19.299333333333333 12.491733333333332 -3.2253333333333334 0.9561333333333333 -6.2536 1.0472 -9.011199999999999 0.11919999999999999 -2.9108 -0.9796 -5.230133333333333 -3.0045333333333333 -6.866533333333333 -5.8408 -2.700533333333333 -4.680933333333333 -3.4126666666666665 -10.831599999999998 -2.4058666666666664 -18.426266666666663 0.4252 -3.207466666666667 1.1630666666666665 -6.711866666666666 2.2118666666666664 -10.518666666666666 -0.40986666666666666 -0.041466666666666666 -0.8215999999999999 -0.12813333333333332 -1.2286666666666666 -0.26306666666666667 -9.557599999999999 -3.1673333333333336 -16.325319999999998 -6.573333333333332 -20.42269333333333 -10.465733333333333 -2.4378266666666666 -2.3158666666666665 -4.02976 -4.894133333333333 -4.605226666666667 -7.748133333333333 -0.6074173333333333 -3.0124 -0.015146666666666666 -6.034 1.6193066666666667 -8.868133333333333 2.6955599999999995 -4.674133333333333 7.651879999999999 -8.360666666666667 14.712746666666668 -11.280533333333333 2.9197333333333333 -1.2074666666666665 6.234533333333333 -2.2974666666666668 9.948533333333334 -3.2744 -0.13226666666666664 -0.32399999999999995 -0.2368 -0.6645333333333333 -0.31 -1.0194666666666665Z" stroke-width="1.3333"></path>
  <path fill="#ff4154" d="M94.18093333333333 86.85573333333333c0.9503999999999999 -0.1684 1.860933333333333 0.4409333333333333 2.0732 1.3756l0.0116 0.05533333333333333 0.10133333333333333 0.526c3.284933333333333 17.270799999999998 0.9709333333333332 25.906266666666667 -6.942266666666666 25.906266666666667 -7.742133333333333 0 -17.597866666666665 -7.368533333333333 -29.567066666666665 -22.105866666666664 -0.2645333333333333 -0.3256 -0.4072 -0.7332000000000001 -0.4036 -1.1526666666666667 0.008666666666666666 -0.9772 0.7928 -1.766 1.7630666666666666 -1.7872l0.05613333333333333 -0.0002666666666666667 0.6302666666666666 0.004399999999999999c5.0367999999999995 0.027333333333333334 9.9332 -0.14826666666666666 14.689333333333332 -0.5267999999999999 5.6144 -0.4468 11.477066666666666 -1.2117333333333333 17.588 -2.2948Zm-54.34426666666667 -13.055066666666665 0.030266666666666667 0.051199999999999996 0.31626666666666664 0.5519999999999999c2.534533333333333 4.406266666666666 5.1752 8.5884 7.921866666666666 12.5464 3.2348 4.661199999999999 6.8724 9.379866666666667 10.912933333333331 14.156 0.6250666666666667 0.7389333333333333 0.5536 1.8356 -0.15146666666666667 2.4878666666666662l-0.04586666666666667 0.04106666666666667 -0.4066666666666666 0.34986666666666666c-13.368533333333334 11.4548 -22.057466666666663 13.741466666666668 -26.067066666666665 6.860266666666666 -3.924666666666666 -6.7356 -2.501733333333333 -18.98293333333333 4.2688 -36.74186666666667 0.1488 -0.39026666666666665 0.42839999999999995 -0.7167999999999999 0.7910666666666667 -0.9237333333333333 0.8477333333333333 -0.48386666666666667 1.9225333333333332 -0.20453333333333334 2.4298666666666664 0.6209333333333333ZM100.9648 48.316l0.054799999999999995 0.017866666666666666 0.5032 0.17373333333333332C118.024 54.24773333333333 124.29333333333332 60.556 120.33053333333334 67.43226666666666c-3.8757333333333333 6.725066666666667 -15.142800000000001 11.6216 -33.80133333333333 14.689466666666664 -0.4161333333333333 0.06839999999999999 -0.8430666666666666 -0.011199999999999998 -1.2065333333333332 -0.22493333333333332 -0.8585333333333334 -0.5046666666666666 -1.1454666666666666 -1.6098666666666666 -0.6406666666666666 -2.4685333333333332 2.6724 -4.545866666666667 5.079333333333333 -9.069066666666666 7.220666666666666 -13.569466666666665 2.4286666666666665 -5.104133333333333 4.7077333333333335 -10.582666666666666 6.8373333333333335 -16.4356 0.3229333333333333 -0.8874666666666666 1.2713333333333332 -1.3694666666666664 2.1698666666666666 -1.1232l0.054933333333333334 0.016Zm-58.288266666666665 -2.8899999999999997c0.8585333333333334 0.5046666666666666 1.1454666666666666 1.6098666666666666 0.6406666666666666 2.4685333333333332 -2.6724 4.545866666666667 -5.079333333333333 9.069066666666666 -7.220666666666666 13.569599999999998 -2.4286666666666665 5.103999999999999 -4.7077333333333335 10.582533333333332 -6.8373333333333335 16.4356 -0.32946666666666663 0.9054666666666666 -1.3104 1.3888 -2.2248 1.1070666666666666l-0.054799999999999995 -0.017866666666666666 -0.5032 -0.17373333333333332C9.975146666666665 73.07506666666666 3.7058799999999996 66.76679999999999 7.6686266666666665 59.89066666666666c3.875693333333333 -6.725199999999999 15.14284 -11.621733333333333 33.80137333333333 -14.6896 0.4161333333333333 -0.06839999999999999 0.8429333333333333 0.011199999999999998 1.2065333333333332 0.22493333333333332Zm52.97573333333333 -28.272266666666667c3.924666666666666 6.7356 2.501733333333333 18.98293333333333 -4.2688 36.74186666666667 -0.1488 0.39026666666666665 -0.42839999999999995 0.7167999999999999 -0.7910666666666667 0.9238666666666666 -0.8477333333333333 0.48373333333333335 -1.9225333333333332 0.20439999999999997 -2.4298666666666664 -0.6210666666666667l-0.030266666666666667 -0.051199999999999996 -0.31626666666666664 -0.5519999999999999c-2.534533333333333 -4.406266666666666 -5.1752 -8.5884 -7.921866666666666 -12.5464 -3.2348 -4.661066666666667 -6.8724 -9.379866666666667 -10.912933333333331 -14.156 -0.6250666666666667 -0.7389333333333333 -0.5537333333333333 -1.8356 0.15146666666666667 -2.4878666666666662l0.04586666666666667 -0.04106666666666667 0.4065333333333333 -0.34986666666666666C82.9536 12.559266666666666 91.64266666666666 10.272533333333332 95.65226666666666 17.15373333333333ZM39.25053333333333 13.054693333333333c7.742266666666667 0 17.598 7.36864 29.5672 22.10584 0.2645333333333333 0.3256 0.4072 0.7332000000000001 0.4036 1.1526666666666667 -0.008666666666666666 0.9772 -0.7928 1.766 -1.7630666666666666 1.7872l-0.05613333333333333 0.00039999999999999996 -0.6302666666666666 -0.004533333333333333c-5.0367999999999995 -0.027333333333333334 -9.9332 0.14826666666666666 -14.689333333333332 0.5267999999999999 -5.6144 0.4469333333333333 -11.477066666666666 1.2118666666666666 -17.588 2.2948 -0.9503999999999999 0.1684 -1.8610666666666664 -0.44079999999999997 -2.0732 -1.3754666666666666l-0.0116 -0.055466666666666664 -0.10133333333333333 -0.526c-3.2850666666666664 -17.270799999999998 -0.9709333333333332 -25.90624 6.942133333333333 -25.90624Z" stroke-width="1.3333"></path>
  <path fill="#ffd94c" d="M55.8208 43.93813333333333h15.459066666666667c2.2607999999999997 0 4.348933333333333 1.2092 5.474266666666666 3.17l7.762133333333333 13.5252c1.1166666666666667 1.9457333333333333 1.1166666666666667 4.337866666666667 0 6.2834666666666665l-7.762133333333333 13.5252c-1.1253333333333333 1.9607999999999999 -3.2134666666666662 3.17 -5.474266666666666 3.17H55.8208c-2.2607999999999997 0 -4.348933333333333 -1.2092 -5.474266666666666 -3.17l-7.762266666666666 -13.5252c-1.1165333333333334 -1.9456 -1.1165333333333334 -4.3377333333333326 0 -6.2834666666666665l7.762266666666666 -13.5252c1.1253333333333333 -1.9607999999999999 3.2134666666666662 -3.17 5.474266666666666 -3.17Zm13.102933333333333 4.0822666666666665c2.2619999999999996 0 4.351066666666666 1.2104 5.475866666666667 3.1729333333333334l5.412799999999999 9.442933333333333c1.1143999999999998 1.9441333333333333 1.1143999999999998 4.333466666666666 0 6.2776l-5.412799999999999 9.443066666666667c-1.1248 1.9624 -3.2138666666666666 3.1729333333333334 -5.475866666666667 3.1729333333333334h-10.746933333333333c-2.2619999999999996 0 -4.350933333333333 -1.2105333333333332 -5.475866666666667 -3.1729333333333334l-5.412799999999999 -9.443066666666667c-1.1143999999999998 -1.9441333333333333 -1.1143999999999998 -4.333466666666666 0 -6.2776l5.412799999999999 -9.442933333333333c1.1249333333333333 -1.9625333333333332 3.2138666666666666 -3.1729333333333334 5.475866666666667 -3.1729333333333334h10.746933333333333Zm-2.5396 4.464799999999999h-5.667733333333333c-2.259733333333333 0 -4.346933333333333 1.208 -5.472799999999999 3.1673333333333336l-2.8602666666666665 4.978133333333333c-1.1186666666666665 1.9470666666666665 -1.1186666666666665 4.341866666666666 0 6.2889333333333335l2.8602666666666665 4.978c1.1258666666666666 1.9593333333333334 3.2130666666666667 3.1673333333333336 5.472799999999999 3.1673333333333336h5.667733333333333c2.259733333333333 0 4.347066666666667 -1.208 5.472799999999999 -3.1673333333333336l2.8602666666666665 -4.978c1.1186666666666665 -1.9470666666666665 1.1186666666666665 -4.341866666666666 0 -6.2889333333333335l-2.8602666666666665 -4.978133333333333c-1.1257333333333333 -1.9593333333333334 -3.2130666666666667 -3.1673333333333336 -5.472799999999999 -3.1673333333333336Zm-2.4452 4.2736c2.258 0 4.343999999999999 1.2062666666666666 5.4702666666666655 3.1632l0.4056 0.7045333333333332c1.1218666666666666 1.9490666666666665 1.1218666666666666 4.348 0 6.297066666666667l-0.4056 0.7045333333333332c-1.1262666666666665 1.9570666666666665 -3.2122666666666664 3.1632 -5.4702666666666655 3.1632h-0.7773333333333332c-2.258 0 -4.343866666666666 -1.2061333333333333 -5.4702666666666655 -3.1632l-0.4056 -0.7045333333333332c-1.1218666666666666 -1.9490666666666665 -1.1218666666666666 -4.348 0 -6.297066666666667l0.4056 -0.7045333333333332c1.1263999999999998 -1.9569333333333332 3.2122666666666664 -3.1632 5.4702666666666655 -3.1632h0.7773333333333332Zm-0.3876 4.209733333333333c-1.0050666666666666 0 -1.9318666666666666 0.5349333333333333 -2.4335999999999998 1.4033333333333333 -0.5017333333333334 0.8681333333333333 -0.5017333333333334 1.9382666666666666 0 2.8065333333333333 0.5017333333333334 0.8682666666666666 1.4285333333333332 1.4032 2.4314666666666667 1.4032 1.0050666666666666 0 1.9318666666666666 -0.5349333333333333 2.4335999999999998 -1.4032 0.5017333333333334 -0.8682666666666666 0.5017333333333334 -1.9384 0 -2.8065333333333333 -0.5017333333333334 -0.8684 -1.4285333333333332 -1.4033333333333333 -2.4314666666666667 -1.4033333333333333Zm-22.770133333333334 2.8065333333333333h5.052933333333333Z" stroke-width="1.3333"></path>
</svg>